<?xml version="1.0" encoding="utf-8"?>
<!-- Generator: Adobe Illustrator 19.2.0, SVG Export Plug-In . SVG Version: 6.00 Build 0)  -->
<svg version="1.1" id="Layer_1" xmlns="http://www.w3.org/2000/svg" xmlns:xlink="http://www.w3.org/1999/xlink" x="0px" y="0px"
	 viewBox="0 0 190.5 37.1" style="enable-background:new 0 0 190.5 37.1;" xml:space="preserve">
<style type="text/css">
	.st1{fill:#08bad1;}
	.st5{fill:#FFFFFF;}
</style>

<g>
	<path class="st5" d="M3.1,31.8v-4c2,1.5,4.2,2.2,6.6,2.2c3.2,0,4.9-1.1,4.9-3.2c0-0.6-0.1-1.1-0.4-1.6c-0.3-0.4-0.7-0.8-1.1-1.1
		c-0.5-0.3-1-0.6-1.7-0.9c-0.6-0.3-1.3-0.5-2.1-0.8c-1-0.4-1.9-0.8-2.7-1.2c-0.8-0.4-1.4-0.9-1.9-1.4c-0.5-0.5-0.9-1.1-1.2-1.8
		c-0.3-0.7-0.4-1.4-0.4-2.3c0-1.1,0.2-2,0.7-2.9c0.5-0.8,1.2-1.5,2-2.1c0.8-0.6,1.8-1,2.8-1.3c1.1-0.3,2.1-0.4,3.3-0.4
		c2,0,3.8,0.3,5.3,1v3.7c-1.7-1.1-3.6-1.7-5.8-1.7c-0.7,0-1.3,0.1-1.9,0.2c-0.6,0.2-1,0.4-1.4,0.7c-0.4,0.3-0.7,0.6-0.9,1
		c-0.2,0.4-0.3,0.8-0.3,1.3c0,0.6,0.1,1.1,0.3,1.5c0.2,0.4,0.5,0.8,1,1.1c0.4,0.3,0.9,0.6,1.5,0.9c0.6,0.3,1.3,0.5,2,0.8
		c1,0.4,1.9,0.8,2.7,1.2c0.8,0.4,1.5,0.9,2.1,1.4c0.6,0.5,1,1.1,1.3,1.8c0.3,0.7,0.5,1.5,0.5,2.4c0,1.1-0.3,2.1-0.8,3
		c-0.5,0.8-1.2,1.5-2,2.1c-0.8,0.6-1.8,1-2.9,1.2c-1.1,0.3-2.2,0.4-3.4,0.4C6.9,33.1,4.8,32.7,3.1,31.8L3.1,31.8z"/>
	<path class="st5" d="M34.7,32.4c-0.9,0.5-2,0.7-3.4,0.7c-4,0-6-2.2-6-6.7V12.7h-4V9.6h4V1.1h3.7v8.5h5.8v3.1h-5.8v13
		c0,1.5,0.3,2.6,0.8,3.3c0.5,0.7,1.4,1,2.6,1c0.9,0,1.7-0.3,2.4-0.8V32.4L34.7,32.4z"/>
	<path class="st5" d="M51.6,13.3c-0.6-0.5-1.6-0.7-2.8-0.7c-1.6,0-2.9,0.7-3.9,2.2c-1.1,1.5-1.6,3.5-1.6,6.1v11.7h-3.7v-23h3.7v4.7
		h0.1c0.5-1.6,1.3-2.9,2.4-3.8c1.1-0.9,2.3-1.4,3.6-1.4c1,0,1.7,0.1,2.2,0.3V13.3L51.6,13.3z"/>
	<path class="st5" d="M73.4,22H57.2c0.1,2.6,0.8,4.5,2.1,5.9c1.3,1.4,3.1,2.1,5.4,2.1c2.6,0,5-0.8,7.1-2.6v3.5c-2,1.5-4.7,2.2-8,2.2
		c-3.2,0-5.8-1-7.7-3.1c-1.9-2.1-2.8-5-2.8-8.8c0-3.6,1-6.5,3-8.7c2-2.3,4.5-3.4,7.6-3.4c3,0,5.3,1,7,2.9c1.6,1.9,2.5,4.6,2.5,8.1
		V22L73.4,22z M69.7,18.9c0-2.1-0.5-3.8-1.5-5c-1-1.2-2.4-1.8-4.2-1.8c-1.7,0-3.2,0.6-4.4,1.9c-1.2,1.2-2,2.9-2.2,4.9H69.7
		L69.7,18.9z"/>
	<path class="st5" d="M95.5,32.6h-3.7V29h-0.1c-1.6,2.8-4,4.1-7.1,4.1c-2.3,0-4.1-0.6-5.4-1.8c-1.3-1.2-1.9-2.8-1.9-4.8
		c0-4.3,2.5-6.8,7.6-7.5l6.9-1c0-3.9-1.6-5.9-4.7-5.9c-2.8,0-5.3,0.9-7.5,2.8v-3.8c2.3-1.4,4.9-2.2,7.8-2.2c5.4,0,8.1,2.9,8.1,8.6
		V32.6L95.5,32.6z M91.8,21l-5.5,0.8c-1.7,0.2-3,0.7-3.9,1.3c-0.9,0.6-1.3,1.7-1.3,3.2c0,1.1,0.4,2,1.2,2.8c0.8,0.7,1.9,1.1,3.2,1.1
		c1.8,0,3.3-0.6,4.5-1.9c1.2-1.3,1.8-2.9,1.8-4.9V21L91.8,21z"/>
	<path class="st5" d="M135.1,32.6h-3.7V19.4c0-2.5-0.4-4.4-1.2-5.5c-0.8-1.1-2.1-1.7-4-1.7c-1.6,0-2.9,0.7-4,2.2
		c-1.1,1.4-1.7,3.2-1.7,5.2v13.1h-3.7V18.9c0-4.5-1.7-6.8-5.2-6.8c-1.6,0-2.9,0.7-4,2c-1.1,1.4-1.6,3.1-1.6,5.3v13.1h-3.7v-23h3.7
		v3.6h0.1c1.6-2.8,4-4.2,7.1-4.2c1.6,0,2.9,0.4,4.1,1.3c1.2,0.9,2,2,2.4,3.5c1.7-3.2,4.2-4.8,7.6-4.8c5.1,0,7.6,3.1,7.6,9.4V32.6
		L135.1,32.6z"/>
	<path class="st5" d="M145.5,26.2c0,2.1,0.8,3.2,2.4,3.2c0.7,0,1.2-0.1,1.8-0.2v3.3c-0.8,0.2-1.7,0.3-2.6,0.3
		c-0.7,0-1.4-0.1-2.1-0.4c-2.3-0.9-3.2-3.2-3.2-5.5V7.6c0-2.1-0.8-3.2-2.4-3.2c-0.7,0-1.2,0.1-1.8,0.2V1.4c0.8-0.2,1.7-0.3,2.6-0.3
		c0.7,0,1.4,0.1,2.1,0.4c2.3,0.9,3.2,3.2,3.2,5.5V26.2L145.5,26.2z"/>
	<path class="st1" d="M156.3,5.9c-0.7,0-1.2-0.2-1.7-0.7c-0.5-0.4-0.7-1-0.7-1.7c0-0.7,0.2-1.3,0.7-1.7c0.5-0.5,1-0.7,1.7-0.7
		c0.7,0,1.2,0.2,1.7,0.7c0.5,0.5,0.7,1,0.7,1.7c0,0.7-0.2,1.2-0.7,1.7C157.6,5.6,157,5.9,156.3,5.9L156.3,5.9z M158.1,26.2
		c0,2.1,0.8,3.2,2.4,3.2c0.7,0,1.2-0.1,1.8-0.2v3.3c-0.3,0.1-0.7,0.1-1.1,0.2c-0.5,0.1-1,0.1-1.5,0.1c-0.7,0-1.4-0.1-2.1-0.4
		c-0.6-0.2-1.2-0.6-1.7-1.1c-0.5-0.5-0.8-1.1-1.1-1.9c-0.3-0.7-0.4-1.6-0.4-2.6V9.6h3.7V26.2L158.1,26.2z"/>
	<path class="st1" d="M175.9,33.1c-3.4,0-6.1-1.1-8.1-3.2c-2-2.1-3-5-3-8.5c0-3.9,1.1-6.9,3.2-9.1c2.1-2.2,5-3.2,8.6-3.2
		c3.4,0,6.1,1.1,8,3.2c1.9,2.1,2.9,5,2.9,8.8c0,3.7-1,6.6-3.1,8.8C182.2,32,179.4,33.1,175.9,33.1L175.9,33.1z M176.2,12.2
		c-2.4,0-4.2,0.8-5.6,2.4c-1.4,1.6-2.1,3.8-2.1,6.7c0,2.7,0.7,4.9,2.1,6.4c1.4,1.6,3.3,2.4,5.6,2.4c2.4,0,4.2-0.8,5.5-2.3
		c1.3-1.5,1.9-3.7,1.9-6.6c0-2.9-0.6-5.1-1.9-6.6C180.4,12.9,178.6,12.2,176.2,12.2L176.2,12.2z"/>
</g>
</svg>
